<svg xmlns="http://www.w3.org/2000/svg" xmlns:xlink="http://www.w3.org/1999/xlink" width="500" zoomAndPan="magnify" viewBox="0 0 375 374.999991" height="500" preserveAspectRatio="xMidYMid meet" version="1.0"><defs><clipPath id="8a156c9712"><path d="M 60.160156 18 L 310 18 L 310 375 L 60.160156 375 Z M 60.160156 18 " clip-rule="nonzero"/></clipPath><clipPath id="2160f41632"><path d="M 78 0 L 328.660156 0 L 328.660156 357 L 78 357 Z M 78 0 " clip-rule="nonzero"/></clipPath><clipPath id="d747a2ca4c"><path d="M 156.007812 219 L 179 219 L 179 254 L 156.007812 254 Z M 156.007812 219 " clip-rule="nonzero"/></clipPath><clipPath id="7f76bf43eb"><path d="M 228 218.105469 L 247.507812 218.105469 L 247.507812 247 L 228 247 Z M 228 218.105469 " clip-rule="nonzero"/></clipPath></defs><g clip-path="url(#8a156c9712)"><path fill="#8c959d" d="M 184.890625 374.941406 C 174.007812 374.941406 164.082031 369.40625 158.335938 360.128906 L 158.304688 360.082031 C 142.265625 333.964844 118.945312 294.507812 98.921875 254.824219 C 72.839844 203.136719 60.164062 166.703125 60.164062 143.449219 C 60.164062 74.671875 116.113281 18.722656 184.890625 18.722656 C 253.664062 18.722656 309.613281 74.671875 309.613281 143.449219 C 309.613281 166.703125 296.9375 203.136719 270.855469 254.824219 C 250.832031 294.507812 227.511719 333.964844 211.472656 360.082031 L 211.441406 360.128906 C 205.695312 369.40625 195.769531 374.941406 184.890625 374.941406 " fill-opacity="1" fill-rule="nonzero"/></g><g clip-path="url(#2160f41632)"><path fill="#ffffff" d="M 203.554688 0.0585938 C 134.777344 0.0585938 78.828125 56.007812 78.828125 124.78125 C 78.828125 148.039062 91.503906 184.472656 117.585938 236.160156 C 137.609375 275.84375 160.933594 315.300781 176.96875 341.417969 L 177 341.464844 C 182.746094 350.742188 192.671875 356.277344 203.554688 356.277344 C 214.433594 356.277344 224.359375 350.742188 230.105469 341.464844 L 230.136719 341.417969 C 246.175781 315.300781 269.496094 275.84375 289.519531 236.160156 C 315.601562 184.472656 328.277344 148.039062 328.277344 124.78125 C 328.277344 56.007812 272.328125 0.0585938 203.554688 0.0585938 " fill-opacity="1" fill-rule="nonzero"/></g><path fill="#3533cd" d="M 130.121094 122.492188 C 130.121094 82 163.058594 49.058594 203.554688 49.058594 C 244.046875 49.058594 276.984375 82 276.984375 122.492188 C 276.984375 163.007812 244.046875 195.945312 203.554688 195.945312 C 163.058594 195.945312 130.121094 163.007812 130.121094 122.492188 Z M 203.554688 14.988281 C 143.011719 14.988281 93.757812 64.242188 93.757812 124.78125 C 93.757812 172.359375 160.863281 286.660156 189.691406 333.601562 C 192.691406 338.441406 197.863281 341.347656 203.554688 341.347656 C 209.246094 341.347656 214.414062 338.441406 217.414062 333.601562 C 246.242188 286.660156 313.347656 172.359375 313.347656 124.78125 C 313.347656 64.242188 264.09375 14.988281 203.554688 14.988281 " fill-opacity="1" fill-rule="nonzero"/><path fill="#3533cd" d="M 249.832031 156.136719 L 157.277344 156.136719 C 155.316406 156.136719 153.734375 154.554688 153.734375 152.597656 L 153.734375 92.410156 C 153.734375 92.246094 153.734375 92.082031 153.78125 91.914062 C 153.78125 91.773438 153.804688 91.632812 153.851562 91.515625 C 153.898438 91.300781 153.96875 91.113281 154.0625 90.921875 C 154.109375 90.78125 154.207031 90.617188 154.300781 90.476562 L 154.347656 90.425781 C 154.441406 90.285156 154.558594 90.144531 154.679688 90.003906 C 154.75 89.929688 154.820312 89.859375 154.890625 89.789062 C 155.054688 89.625 155.21875 89.507812 155.410156 89.390625 C 155.550781 89.292969 155.714844 89.199219 155.90625 89.128906 C 156.046875 89.058594 156.238281 89.011719 156.402344 88.964844 C 156.496094 88.941406 156.566406 88.917969 156.660156 88.917969 C 156.847656 88.867188 157.039062 88.847656 157.25 88.847656 L 249.855469 88.847656 C 250.066406 88.847656 250.257812 88.867188 250.445312 88.917969 C 250.539062 88.917969 250.613281 88.941406 250.707031 88.964844 C 250.871094 89.011719 251.058594 89.058594 251.199219 89.128906 C 251.390625 89.199219 251.554688 89.292969 251.695312 89.390625 C 251.886719 89.507812 252.050781 89.625 252.214844 89.789062 C 252.285156 89.859375 252.355469 89.929688 252.429688 90.003906 C 252.570312 90.121094 252.664062 90.261719 252.757812 90.425781 L 252.808594 90.476562 C 252.902344 90.617188 252.996094 90.78125 253.042969 90.921875 C 253.136719 91.113281 253.207031 91.300781 253.253906 91.515625 C 253.304688 91.632812 253.324219 91.773438 253.324219 91.914062 C 253.375 92.082031 253.375 92.246094 253.375 92.410156 L 253.375 152.597656 C 253.375 154.554688 251.789062 156.136719 249.832031 156.136719 Z M 203.554688 56.144531 C 166.957031 56.144531 137.207031 85.917969 137.207031 122.492188 C 137.207031 159.089844 166.957031 188.863281 203.554688 188.863281 C 240.152344 188.863281 269.902344 159.089844 269.902344 122.492188 C 269.902344 85.917969 240.152344 56.144531 203.554688 56.144531 " fill-opacity="1" fill-rule="nonzero"/><path fill="#3533cd" d="M 237.933594 95.929688 L 203.554688 118.265625 L 169.175781 95.929688 Z M 237.933594 95.929688 " fill-opacity="1" fill-rule="nonzero"/><path fill="#3533cd" d="M 246.289062 98.929688 L 246.289062 149.054688 L 160.816406 149.054688 L 160.816406 98.929688 L 201.617188 125.464844 C 202.207031 125.84375 202.894531 126.03125 203.554688 126.03125 C 204.214844 126.03125 204.898438 125.84375 205.492188 125.464844 L 246.289062 98.929688 " fill-opacity="1" fill-rule="nonzero"/><path fill="#3533cd" d="M 154.347656 90.425781 C 154.226562 90.570312 154.132812 90.734375 154.0625 90.921875 C 154.109375 90.78125 154.207031 90.617188 154.300781 90.476562 L 154.347656 90.425781 " fill-opacity="1" fill-rule="nonzero"/><path fill="#3533cd" d="M 253.042969 90.921875 C 252.972656 90.734375 252.878906 90.570312 252.757812 90.425781 L 252.808594 90.476562 C 252.902344 90.617188 252.996094 90.78125 253.042969 90.921875 " fill-opacity="1" fill-rule="nonzero"/><path fill="#c77c3d" d="M 206.546875 226.542969 C 206.546875 226.542969 179.414062 250.230469 178.765625 253.152344 C 178.765625 253.152344 179.777344 253.765625 180.800781 255.300781 C 181.980469 257.082031 183.566406 257.90625 184.453125 257.558594 C 185.734375 257.058594 185.746094 256.148438 185.746094 256.148438 L 203.246094 265.105469 C 203.246094 265.105469 209.980469 263.890625 224.84375 251.863281 L 228.96875 247.3125 L 206.546875 226.542969 " fill-opacity="1" fill-rule="nonzero"/><path fill="#f09b52" d="M 178.828125 226.960938 C 178.828125 226.960938 181.488281 229.429688 185.230469 227.890625 L 197.023438 222.972656 C 197.023438 222.972656 201.113281 220.683594 204.628906 223.824219 C 204.628906 223.824219 200.058594 231.875 207.078125 234.238281 C 207.078125 234.238281 213.703125 238.347656 217.007812 242.125 C 218.667969 244.023438 222.3125 247.351562 224.015625 249.183594 C 224.472656 249.675781 225.433594 250.445312 225.882812 251.152344 C 226.507812 252.136719 227.667969 254.25 225.175781 255.847656 C 225.175781 255.847656 223.449219 257.421875 220.671875 255.183594 C 218.089844 253.101562 213.710938 248.480469 210.988281 246.242188 C 210.839844 246.121094 210.125 245.878906 211.023438 247.007812 C 212.128906 248.394531 217.472656 253.492188 217.472656 253.492188 C 217.472656 253.492188 219.484375 255.300781 219.910156 256.144531 C 220.28125 256.882812 220.800781 258.46875 219.277344 259.929688 C 219.277344 259.929688 217.09375 262.160156 214.132812 259.792969 L 207.414062 253.722656 C 207.414062 253.722656 205.972656 252.511719 207.046875 254.148438 C 207.046875 254.148438 213.863281 260.34375 214.054688 261.179688 C 214.605469 263.5625 212.613281 266.289062 209.148438 264.414062 L 201.289062 258.734375 C 201.289062 258.734375 200.53125 258.523438 201.085938 259.21875 C 201.085938 259.21875 208.40625 264.25 208.894531 264.761719 C 209.53125 265.433594 207.460938 267.953125 204.03125 266.40625 C 199.132812 264.199219 189.191406 260.085938 184.453125 257.558594 C 182.785156 256.667969 179.414062 254.429688 178.132812 253.417969 C 178.132812 253.417969 173.011719 249.214844 165.414062 248.109375 L 173.855469 225.414062 L 178.828125 226.960938 " fill-opacity="1" fill-rule="nonzero"/><path fill="#f18d45" d="M 184.082031 258.71875 C 184.082031 258.71875 185.960938 256.796875 187.050781 256.15625 C 189.265625 254.851562 192.714844 256.820312 192.652344 258.753906 C 192.652344 258.753906 193.199219 260.730469 189.59375 263.085938 C 188.929688 263.519531 186.863281 264.496094 184.359375 261.847656 C 184.359375 261.847656 182.886719 260.101562 184.082031 258.71875 " fill-opacity="1" fill-rule="nonzero"/><path fill="#f18d45" d="M 190.492188 263.75 C 190.609375 262.332031 192.914062 259.996094 193.894531 259.195312 C 195.046875 258.25 199.191406 257.726562 199.117188 262.054688 C 199.117188 262.054688 198.488281 265.015625 196.046875 266.441406 C 194.882812 267.117188 190.234375 266.75 190.492188 263.75 " fill-opacity="1" fill-rule="nonzero"/><path fill="#f18d45" d="M 199.753906 262.753906 C 200.574219 261.753906 204.023438 261.664062 203.703125 264.789062 C 203.582031 265.972656 202.722656 267.84375 200.871094 268.390625 C 199.527344 268.792969 196.277344 267.457031 197.089844 266.167969 C 197.648438 265.285156 197.898438 265.011719 199.753906 262.753906 " fill-opacity="1" fill-rule="nonzero"/><path fill="#f9ab58" d="M 183.421875 259.03125 C 183.421875 259.03125 185.300781 257.109375 186.390625 256.464844 C 188.605469 255.160156 192.054688 257.128906 191.988281 259.0625 C 191.988281 259.0625 192.535156 261.039062 188.933594 263.394531 C 188.265625 263.832031 186.203125 264.804688 183.695312 262.15625 C 183.695312 262.15625 182.222656 260.410156 183.421875 259.03125 " fill-opacity="1" fill-rule="nonzero"/><path fill="#f18d45" d="M 189.03125 240.554688 C 189.03125 240.554688 193.226562 244.832031 199.4375 234.460938 C 199.4375 234.460938 201.890625 235.679688 206.171875 233.871094 L 207.167969 232.683594 C 207.167969 232.683594 198.957031 232.523438 198.972656 232.6875 C 198.988281 232.851562 189.03125 240.554688 189.03125 240.554688 " fill-opacity="1" fill-rule="nonzero"/><path fill="#f9ab58" d="M 189.828125 264.058594 C 189.949219 262.640625 192.25 260.308594 193.230469 259.503906 C 194.386719 258.558594 198.527344 258.035156 198.453125 262.363281 C 198.453125 262.363281 197.828125 265.324219 195.382812 266.75 C 194.222656 267.429688 189.574219 267.0625 189.828125 264.058594 " fill-opacity="1" fill-rule="nonzero"/><path fill="#f9ab58" d="M 199.089844 263.0625 C 199.910156 262.0625 203.359375 261.972656 203.042969 265.097656 C 202.921875 266.285156 202.0625 268.152344 200.210938 268.703125 C 198.863281 269.101562 195.613281 267.765625 196.425781 266.476562 C 196.984375 265.59375 197.238281 265.320312 199.089844 263.0625 " fill-opacity="1" fill-rule="nonzero"/><path fill="#f18d45" d="M 178.445312 255.507812 C 178.824219 254.898438 179.386719 254.339844 180.457031 253.679688 C 181.101562 253.28125 182.777344 253.308594 183.6875 254.050781 C 184.347656 254.585938 185.617188 255.804688 185.1875 256.695312 C 184.363281 258.378906 183.046875 260.640625 180.941406 259.671875 C 180.941406 259.671875 176.769531 258.222656 178.445312 255.507812 " fill-opacity="1" fill-rule="nonzero"/><path fill="#f9ab58" d="M 177.792969 255.492188 C 178.167969 254.882812 178.734375 254.324219 179.800781 253.664062 C 180.449219 253.265625 182.121094 253.289062 183.035156 254.035156 C 183.691406 254.570312 184.964844 255.789062 184.53125 256.675781 C 183.710938 258.363281 182.394531 260.621094 180.285156 259.65625 C 180.285156 259.65625 176.117188 258.207031 177.792969 255.492188 " fill-opacity="1" fill-rule="nonzero"/><g clip-path="url(#d747a2ca4c)"><path fill="#dadbd8" d="M 178.242188 224.550781 L 170.078125 253.121094 L 156.03125 248.535156 L 166.160156 219.65625 L 178.242188 224.550781 " fill-opacity="1" fill-rule="nonzero"/></g><path fill="#fabd8a" d="M 179.503906 254.710938 C 179.503906 254.710938 178.546875 256.617188 179.691406 257.613281 C 179.691406 257.613281 181.054688 259.746094 183.449219 256.808594 C 183.847656 256.320312 183.222656 255.289062 181.953125 254.773438 C 181.953125 254.773438 180.769531 254.136719 179.503906 254.710938 " fill-opacity="1" fill-rule="nonzero"/><path fill="#fabd8a" d="M 185.421875 259.101562 C 185.421875 259.101562 186.472656 257.371094 187.203125 257.179688 C 187.957031 256.980469 190.117188 257.203125 190.753906 259.433594 C 190.863281 259.816406 190.203125 260.503906 189.902344 260.875 C 189.339844 261.558594 187.996094 262.519531 186.695312 261.578125 C 186.695312 261.578125 184.984375 260.707031 185.421875 259.101562 " fill-opacity="1" fill-rule="nonzero"/><path fill="#fabd8a" d="M 192.550781 261.597656 C 192.8125 261.089844 193.6875 260.214844 194.382812 260.230469 C 195.527344 260.261719 198.03125 261.429688 197.128906 263.011719 C 197.128906 263.011719 196.359375 264.351562 195.046875 264.523438 C 195.046875 264.523438 192.746094 265.035156 192.1875 262.882812 C 192.105469 262.558594 192.398438 261.894531 192.550781 261.597656 " fill-opacity="1" fill-rule="nonzero"/><path fill="#fabd8a" d="M 198.125 265.554688 C 198.347656 266.40625 199.636719 267.421875 200.585938 266.753906 C 200.972656 266.484375 201.816406 265.527344 201.914062 265.070312 C 202.078125 264.292969 200.742188 262.441406 199.195312 263.8125 C 198.828125 264.136719 198.003906 265.082031 198.125 265.554688 " fill-opacity="1" fill-rule="nonzero"/><path fill="#f9ab58" d="M 210.132812 223.75 C 210.132812 223.75 205.609375 221.671875 201.550781 224.832031 L 195.042969 227.769531 C 195.042969 227.769531 192.359375 228.296875 191.128906 231.640625 L 187.664062 236.996094 C 187.664062 236.996094 184.953125 240.632812 191.484375 240.910156 C 191.484375 240.910156 195.382812 239.816406 199.070312 234.246094 L 199.144531 233.484375 C 199.144531 233.484375 199.445312 234.472656 201.628906 234.367188 C 201.628906 234.367188 203.929688 233.882812 207.105469 233.257812 C 207.105469 233.257812 207.523438 233.921875 210.25 235.902344 C 210.25 235.902344 216.941406 240.550781 218.351562 242.757812 L 226.109375 250.371094 C 226.109375 250.371094 227.507812 250.007812 231.472656 245.273438 L 239.199219 243.578125 L 234.113281 221.4375 C 234.113281 221.4375 221.71875 224.570312 218.207031 224.480469 L 210.132812 223.75 " fill-opacity="1" fill-rule="nonzero"/><g clip-path="url(#7f76bf43eb)"><path fill="#dadbd8" d="M 228.886719 221.300781 L 236.070312 246.640625 L 247.480469 243.792969 L 239.871094 218.101562 L 228.886719 221.300781 " fill-opacity="1" fill-rule="nonzero"/></g><path fill="#fabd8a" d="M 189.382812 234.335938 C 189.382812 234.335938 192.105469 233.683594 192.644531 235.574219 C 192.644531 235.574219 191.449219 238.679688 190.472656 239.277344 C 189.71875 239.742188 187.410156 239.679688 187.113281 238.449219 C 187.113281 238.449219 186.984375 237.207031 189.382812 234.335938 " fill-opacity="1" fill-rule="nonzero"/><path fill="#f18d45" d="M 212.738281 237.710938 C 212.738281 237.710938 217.320312 240.304688 222.691406 237.015625 C 222.691406 237.015625 218.769531 241.105469 214.449219 239.035156 L 212.738281 237.710938 " fill-opacity="1" fill-rule="nonzero"/><path fill="#252627" d="M 165.902344 247.257812 C 165.878906 248.148438 165.136719 248.851562 164.242188 248.832031 C 163.347656 248.808594 162.644531 248.0625 162.667969 247.171875 C 162.691406 246.28125 163.433594 245.574219 164.328125 245.597656 C 165.21875 245.621094 165.925781 246.363281 165.902344 247.257812 " fill-opacity="1" fill-rule="nonzero"/><path fill="#5a5e60" d="M 165.910156 246.894531 C 165.886719 247.785156 165.144531 248.488281 164.25 248.464844 C 163.359375 248.441406 162.652344 247.699219 162.675781 246.808594 C 162.699219 245.914062 163.441406 245.210938 164.335938 245.234375 C 165.230469 245.257812 165.933594 246 165.910156 246.894531 " fill-opacity="1" fill-rule="nonzero"/><path fill="#252627" d="M 242.5 241.152344 C 242.476562 242.042969 241.734375 242.75 240.839844 242.726562 C 239.949219 242.703125 239.242188 241.960938 239.265625 241.066406 C 239.289062 240.175781 240.03125 239.46875 240.925781 239.492188 C 241.816406 239.515625 242.523438 240.257812 242.5 241.152344 " fill-opacity="1" fill-rule="nonzero"/><path fill="#5a5e60" d="M 242.507812 240.789062 C 242.488281 241.679688 241.742188 242.382812 240.851562 242.363281 C 239.957031 242.339844 239.253906 241.597656 239.277344 240.703125 C 239.300781 239.8125 240.042969 239.105469 240.9375 239.128906 C 241.828125 239.152344 242.53125 239.894531 242.507812 240.789062 " fill-opacity="1" fill-rule="nonzero"/></svg>